# xmcd
#
# Track frame offsets: 
#        150
#        10810
#        22670
#        42220
#        56940
#        68285
#        79695
#        91305
#        104620
#        114120
#        127770
#        142340
#        153930
#        167020
#        183315
#        198990
#        211985
#        226030
#        238585
#        249145
#        262720
#        282820
#        295140
#        316770
#        329305
#
# Disc length: 4637 seconds
#
# Revision: 0
# Processed by: cddbd v1.5.2PL0 Copyright (c) Steve Scherf et al.
# Submitted via: ExactAudioCopy v1.1
#
DISCID=3b121b19
DTITLE=Various Artist - 100 Country Hits [CD4]
DYEAR=2008
DGENRE=Country
TTITLE0=Jim Reeves - He'll have to go
TTITLE1=Eddy Arnold - make the world go away
TTITLE2=Marty Robbins - el paso
TTITLE3=Rosanne Cash - seven year ache
TTITLE4=Don Gibson - sea of heartbreak
TTITLE5=Johnny Cash - i walk the line
TTITLE6=Tennessee Ernie Ford - sixteen tons
TTITLE7=Jimmy Dean - big bad john
TTITLE8=ned miller - from a jack to a king
TTITLE9=Don Williams - desperately
TTITLE10=George Jones - he stopped loving her today
TTITLE11=Skeeter Davis - the end of the world
TTITLE12=Glen Campbell - honey, come back
TTITLE13=Kenny Rogers - lucille
TTITLE14=Billie Jo Spears - blanket on the ground
TTITLE15=Crystal Gayle - talking in your sleep
TTITLE16=Dr. Hook - if not you
TTITLE17=Charley Pride - crystal chandeliers
TTITLE18=The Everly Brothers - bye bye love
TTITLE19=Willie Nelson - funny how time slips aweay
TTITLE20=Kris Kristofferson - sunday mornin' comin' down
TTITLE21=Bobby Bare - four strong winds
TTITLE22=The Nitty Gritty Dirt Band - will that circle be unbroken
TTITLE23=Tanya Tucker - would you lay with me (in a field of stone)
TTITLE24=Joe South - walk a mile in my shoes
EXTD=
EXTT0=
EXTT1=
EXTT2=
EXTT3=
EXTT4=
EXTT5=
EXTT6=
EXTT7=
EXTT8=
EXTT9=
EXTT10=
EXTT11=
EXTT12=
EXTT13=
EXTT14=
EXTT15=
EXTT16=
EXTT17=
EXTT18=
EXTT19=
EXTT20=
EXTT21=
EXTT22=
EXTT23=
EXTT24=
PLAYORDER=
